<svg width="60" height="61" viewBox="0 0 60 61" fill="none" xmlns="http://www.w3.org/2000/svg">
<path d="M59.5875 46.4693C59.5877 48.8385 58.9467 51.1636 57.7324 53.198C56.5182 55.2324 54.776 56.9003 52.6906 58.0247C50.6052 59.1491 48.2544 59.6882 45.8875 59.5847C43.5205 59.4813 41.2257 58.7392 39.2464 57.4371C38.4256 56.8287 37.642 56.1718 36.8996 55.4699C35.0084 53.8755 32.3579 53.3233 29.7074 53.3233C27.3192 53.3233 24.9103 53.7029 23.1433 55.0488C22.2945 56.0328 21.3034 56.8842 20.2029 57.5751C20.1802 57.5856 20.1592 57.5996 20.1408 57.6165V57.6234C20.1215 57.6374 20.1007 57.6489 20.0787 57.6579C20.0648 57.6717 20.0579 57.6717 20.0579 57.6717C18.0003 58.935 15.6322 59.6017 13.2178 59.5975H13.128C10.4362 59.5966 7.80965 58.7686 5.60403 57.2254C3.39843 55.6823 1.72032 53.4987 0.796891 50.9701C-0.12653 48.4417 -0.250641 45.6905 0.441371 43.0891C1.13339 40.4877 2.60809 38.1619 4.6658 36.4264C5.40108 35.4195 5.89684 34.258 6.11528 33.0305C6.11714 32.9842 6.12174 32.9381 6.12908 32.8924C6.30858 31.9019 6.39409 30.8966 6.38446 29.8899C6.38446 27.2532 5.85299 24.6235 4.27927 22.753C3.53476 21.9768 2.84079 21.1538 2.20166 20.2888C0.914216 18.3064 0.185705 16.0132 0.0929695 13.6512C0.000233527 11.2892 0.546708 8.94596 1.67476 6.86865C2.80282 4.79136 4.47063 3.05705 6.50223 1.84866C8.53384 0.640266 10.8539 0.00259257 13.2178 0.00292982H13.3627C16.82 0.0427219 20.1222 1.44417 22.5528 3.90319C24.9834 6.36222 26.3464 9.6805 26.346 13.138V13.2001C26.335 15.7429 25.5843 18.2275 24.1855 20.3509C23.5757 21.1706 22.9189 21.9541 22.2184 22.6977C20.6239 24.5889 20.0717 27.2325 20.0717 29.8899C20.0664 30.7397 20.1241 31.5887 20.2443 32.43C20.4177 33.9702 21.0097 35.4336 21.9561 36.6611C22.246 37.0131 22.5566 37.3513 22.8672 37.6895C22.9086 37.7171 22.9431 37.7517 22.9776 37.7793C24.7377 39.2495 27.2432 39.636 29.7074 39.636C29.9973 39.636 30.2941 39.6291 30.584 39.6153C32.91 39.5048 35.174 38.9319 36.8375 37.5239C37.6163 36.7819 38.4417 36.0903 39.3085 35.4532C40.9368 34.3961 42.7791 33.7129 44.7029 33.4528C46.6268 33.1926 48.5844 33.3619 50.435 33.9485C50.4501 33.9525 50.4642 33.9595 50.4764 33.9693C53.1237 34.8185 55.4327 36.4869 57.0703 38.7336C58.7079 40.9803 59.5894 43.6892 59.5875 46.4693Z" fill="url(#paint0_linear_24_42)"/>
<path d="M59.5874 13.1351C59.5877 15.703 58.8351 18.2147 57.4228 20.3595C56.0105 22.5041 54.0005 24.1878 51.6414 25.2021C49.2822 26.2164 46.6775 26.5169 44.1494 26.0664C41.6213 25.6158 39.2807 24.434 37.4172 22.6672L37.3964 22.6465C36.1352 21.4474 35.126 20.0086 34.4279 18.4145C33.7298 16.8204 33.3569 15.1029 33.331 13.3629V13.3373C33.3253 13.2708 33.323 13.204 33.3242 13.1372C33.324 10.8493 33.9215 8.60096 35.0575 6.615C36.1934 4.62903 37.8285 2.97423 39.8007 1.81449C41.7729 0.654751 44.0138 0.030296 46.3015 0.00295246C48.5893 -0.0243911 50.8445 0.546323 52.8438 1.6586C52.8921 1.69311 52.9129 1.70692 52.9129 1.70692C55.2055 2.99894 57.0553 4.95216 58.2207 7.31161C58.2275 7.32686 58.2368 7.34088 58.2484 7.35302C59.1312 9.15253 59.5893 11.1307 59.5874 13.1351Z" fill="url(#paint1_linear_24_42)"/>
<g style="mix-blend-mode:screen" opacity="0.6">
<g style="mix-blend-mode:screen" opacity="0.6">
<path d="M14.7764 0.186355H14.2794C13.955 0.165648 13.4856 0.207073 12.892 0.241585C12.1831 0.314229 11.4798 0.434128 10.7868 0.600498C9.89883 0.816764 9.03424 1.11961 8.20534 1.5047C6.60663 2.2415 5.1778 3.3014 4.00888 4.61763C2.83996 5.93386 1.95627 7.4779 1.4135 9.15247C1.00614 10.3864 0.796486 11.6769 0.79229 12.9763C0.764384 14.2737 0.934277 15.5678 1.29614 16.814C1.6445 18.0166 2.17776 19.1576 2.87678 20.1962C3.56011 21.1832 4.51264 22.0322 5.19597 23.1227C5.805 24.1188 6.21737 25.2224 6.41076 26.3737C6.58467 27.3161 6.66789 28.273 6.65925 29.2313C6.66384 29.9637 6.61076 30.6953 6.50049 31.4193C6.43558 31.8827 6.34105 32.3415 6.2175 32.7929C6.14848 33.0207 6.10017 33.1656 6.07947 33.2346C6.08637 33.2001 6.10016 33.1311 6.11396 33.0276C6.11582 32.9813 6.12043 32.9352 6.12776 32.8895C6.30727 31.899 6.3928 30.8936 6.38317 29.887C6.38317 27.2503 5.85168 24.6205 4.27795 22.75C3.53344 21.9739 2.8395 21.1508 2.20037 20.2859C0.912921 18.3034 0.184391 16.0103 0.0916553 13.6483C-0.00108074 11.2862 0.545415 8.94298 1.67347 6.86572C2.80152 4.78843 4.46933 3.0541 6.50094 1.84571C8.53251 0.637315 10.8527 -0.00033712 13.2164 1.3371e-07H13.3614C13.6714 0.0203698 13.9802 0.0572369 14.2863 0.11044C14.6038 0.158756 14.7764 0.186355 14.7764 0.186355Z" fill="white"/>
</g>
</g>
<g style="mix-blend-mode:multiply" opacity="0.25">
<g style="mix-blend-mode:multiply" opacity="0.25">
<path d="M20.2443 32.4568L20.1753 32.229C20.1304 32.0806 20.0614 31.8632 19.9972 31.5782C19.8092 30.7914 19.6971 29.9885 19.6625 29.1803C19.6008 28.0171 19.7125 26.8512 19.9938 25.7209C20.1513 25.0639 20.3829 24.4269 20.684 23.822C21.0131 23.2097 21.4025 22.6316 21.8463 22.0965C22.2833 21.5726 22.7623 21.0984 23.1267 20.6421C23.5048 20.1791 23.8541 19.6931 24.1724 19.1871C24.4676 18.705 24.7368 18.2073 24.9786 17.6962C25.1981 17.2131 25.3928 16.7299 25.5529 16.2819C25.8073 15.5457 26.0126 14.7933 26.1672 14.0297C26.2811 13.4693 26.3328 13.14 26.3328 13.14C26.3857 13.4403 26.4218 13.7433 26.4412 14.0477C26.4972 14.859 26.4572 15.6741 26.3218 16.4759C26.1346 17.6289 25.7666 18.7452 25.2312 19.7835C24.9305 20.3759 24.5764 20.9396 24.1731 21.4677C23.7438 22.0267 23.3 22.4851 22.91 22.9758C22.5103 23.4327 22.1575 23.9285 21.8567 24.4557C21.5769 24.9712 21.3422 25.51 21.1554 26.066C20.8167 27.0892 20.5804 28.1435 20.45 29.2134C20.3306 30.1673 20.2871 30.9804 20.2671 31.5533L20.2443 32.4568Z" fill="black"/>
</g>
</g>
<g style="mix-blend-mode:screen" opacity="0.6">
<g style="mix-blend-mode:screen" opacity="0.6">
<path d="M50.4765 33.9663C50.4006 33.9594 50.0693 33.9042 49.5585 33.842C49.2617 33.8075 48.9097 33.7799 48.5025 33.7592C48.0519 33.7326 47.6003 33.7302 47.1496 33.7523C46.9011 33.7661 46.5974 33.773 46.3765 33.7937C46.1005 33.8213 45.8244 33.842 45.5552 33.8765C44.9746 33.9599 44.3987 34.0728 43.8296 34.2148C43.2272 34.3667 42.6347 34.5557 42.0557 34.7807C41.4615 35.0105 40.8869 35.2874 40.337 35.609C39.7859 35.9207 39.2639 36.2811 38.7771 36.6858C38.2939 37.0999 37.7901 37.5348 37.2655 37.9489C36.7509 38.3576 36.1847 38.6964 35.5813 38.9566C35.0528 39.1847 34.5024 39.3582 33.9386 39.4743C33.4722 39.573 32.9993 39.6376 32.5236 39.6676C32.1583 39.6938 31.7918 39.6962 31.4261 39.6745C30.8256 39.6538 30.4874 39.6331 30.4874 39.6331L30.5841 39.6124C32.9101 39.5019 35.1741 38.929 36.8376 37.521C37.6164 36.779 38.4417 36.0873 39.3086 35.4503C40.9369 34.3932 42.7792 33.71 44.703 33.4498C46.6269 33.1897 48.5845 33.3589 50.4351 33.9456C50.4502 33.9496 50.4643 33.9566 50.4765 33.9663Z" fill="white"/>
</g>
</g>
<g style="mix-blend-mode:multiply" opacity="0.25">
<g style="mix-blend-mode:multiply" opacity="0.25">
<path d="M20.0531 57.6702C20.0531 57.6702 20.2526 57.5377 20.6053 57.2657C21.1133 56.8716 21.5952 56.4448 22.0479 55.9881C22.3488 55.6982 22.6201 55.3455 23.0045 54.9756C23.42 54.5928 23.8866 54.2696 24.3912 54.0154C25.6053 53.4399 26.9101 53.0796 28.2475 52.9504C29.8278 52.7553 31.429 52.8122 32.9915 53.1188C33.4222 53.2027 33.8479 53.3098 34.267 53.4398C34.6991 53.5759 35.1187 53.7489 35.5212 53.9568C36.3288 54.3898 37.0917 54.9015 37.7989 55.4843C38.5106 56.042 39.2015 56.6114 39.9345 57.0828C40.2968 57.3201 40.6763 57.5298 41.07 57.7102C41.4712 57.901 41.8828 58.0692 42.3027 58.2141C44.0118 58.8067 45.8288 59.0229 47.6292 58.8477L47.966 58.8132L48.2981 58.7642C48.5334 58.7283 48.7812 58.6952 48.9828 58.6455C49.4199 58.5561 49.8521 58.4439 50.2776 58.3094C51.1337 58.0359 51.9568 57.6685 52.7321 57.214C54.2108 56.3682 55.5043 55.2335 56.5354 53.8774C57.5665 52.5213 58.3141 50.9715 58.7337 49.3205C59.094 47.8742 59.1952 46.3756 59.0325 44.894C58.8956 43.6279 58.5803 42.3874 58.0959 41.2096C57.7239 40.2903 57.249 39.4162 56.6802 38.604C56.4538 38.2588 56.2171 37.9717 56.0169 37.7177C55.8531 37.498 55.6754 37.2891 55.4847 37.0924L55.0175 36.5892L55.5372 37.0392C55.7505 37.2151 55.9518 37.4052 56.1398 37.608C56.4103 37.868 56.6623 38.1467 56.8942 38.4418C57.5453 39.2272 58.1052 40.084 58.5632 40.9956C59.9113 43.6315 60.325 46.6467 59.7366 49.5483C59.3712 51.313 58.6494 52.9846 57.6155 54.4606C55.9209 56.8724 53.4945 58.6743 50.6959 59.5994C50.2147 59.7568 49.7252 59.8879 49.2299 59.9922C48.971 60.055 48.7419 60.0853 48.5058 60.1233L48.1296 60.182L47.7548 60.2213C45.7581 60.3988 43.7466 60.1427 41.8582 59.4703C40.9254 59.149 40.0395 58.7051 39.2236 58.1506C38.4195 57.6026 37.7203 56.9924 37.0369 56.4292C36.3978 55.8787 35.7116 55.3854 34.9863 54.9548C34.64 54.7559 34.2766 54.5884 33.9005 54.4544C33.5297 54.3245 33.1526 54.2133 32.7706 54.121C31.3133 53.7768 29.8134 53.6473 28.3186 53.7366C27.0505 53.7895 25.7982 54.0399 24.6072 54.4786C24.1216 54.6759 23.6658 54.9397 23.253 55.2627C22.8844 55.5616 22.5559 55.9184 22.2308 56.1835C21.7357 56.6079 21.2064 56.9904 20.6481 57.3272C20.2657 57.5605 20.0531 57.6702 20.0531 57.6702Z" fill="black"/>
</g>
</g>
<g style="mix-blend-mode:multiply" opacity="0.25">
<g style="mix-blend-mode:multiply" opacity="0.25">
<path d="M58.1192 7.15073L58.3366 7.50619C58.5389 7.84551 58.7232 8.19525 58.8888 8.55397C59.4885 9.8534 59.8546 11.2482 59.9704 12.6746L59.9932 13.0129L59.9987 13.0984C60.0005 13.1214 60.0005 13.1445 59.9987 13.1675V13.2089V13.3773C59.9945 13.6028 59.9904 13.8329 59.9863 14.0675C59.9821 14.3022 59.9762 14.5397 59.9683 14.7799C59.9511 15.0235 59.8938 15.2837 59.8572 15.5391C59.7033 16.6228 59.404 17.6808 58.9675 18.6845C58.7473 19.2168 58.4844 19.7303 58.1813 20.2203C57.8919 20.7359 57.5537 21.2227 57.1715 21.6739L56.6007 22.3676C56.3971 22.5877 56.1714 22.7886 55.9567 23.0005C55.742 23.2124 55.526 23.4257 55.2954 23.6217L54.5728 24.1739C53.5983 24.8857 52.5357 25.4682 51.4115 25.9071C50.8612 26.1213 50.2975 26.2993 49.7239 26.4399C49.1586 26.5849 48.5795 26.6373 48.0232 26.7353C47.4606 26.7933 46.9002 26.7913 46.3576 26.8044C45.8144 26.7899 45.2857 26.7029 44.7701 26.656C43.8137 26.5118 42.8787 26.25 41.9864 25.8767C41.2259 25.5983 40.5017 25.2294 39.8294 24.7778C39.3109 24.4398 38.8209 24.0601 38.3641 23.6424C38.0716 23.3776 37.7949 23.0958 37.5358 22.7983L37.2597 22.4821C38.719 23.7032 40.4181 24.6047 42.2473 25.1285C42.6596 25.269 43.0837 25.3721 43.5146 25.4363C43.9693 25.5247 44.4282 25.5901 44.8895 25.6324C45.3658 25.6399 45.8558 25.689 46.35 25.6669C46.8456 25.6089 47.355 25.6068 47.8644 25.5288C48.3683 25.4142 48.8901 25.3494 49.3974 25.1947L50.1567 24.9442C50.4174 24.875 50.6716 24.7825 50.9159 24.6681C51.9277 24.2559 52.882 23.7152 53.7555 23.0592L54.4182 22.5712C54.6252 22.3972 54.8199 22.2005 55.0221 22.019C55.2244 21.8375 55.428 21.6525 55.6143 21.4558L56.1382 20.8346C56.4875 20.4306 56.8059 20.001 57.0907 19.5493C57.385 19.1168 57.6433 18.6609 57.8631 18.1861C58.0901 17.7329 58.2836 17.2636 58.4422 16.7822C58.6146 16.3334 58.7471 15.8703 58.8384 15.3983C58.8888 15.1685 58.9592 14.9531 58.9923 14.7184C59.0255 14.4837 59.0427 14.2422 59.0669 14.0102C59.091 13.7783 59.1193 13.5499 59.1449 13.3255L59.1642 13.1585L59.169 13.1164C59.169 13.1578 59.169 13.1033 59.169 13.1033V13.0232L59.1787 12.705C59.1942 11.3345 59.0093 9.96901 58.63 8.65198C58.4885 8.14224 58.318 7.64093 58.1192 7.15073Z" fill="black"/>
</g>
</g>
<g style="mix-blend-mode:screen" opacity="0.6">
<g style="mix-blend-mode:screen" opacity="0.6">
<path d="M52.9116 1.70486C52.9116 1.70486 52.4905 1.55989 51.7658 1.2838C51.4207 1.13885 50.9513 1.04913 50.4474 0.904181C50.1921 0.848963 49.916 0.793751 49.6261 0.738532C49.3362 0.697119 49.0256 0.648803 48.7081 0.607389C48.3905 0.586682 48.0523 0.559069 47.7072 0.538362C47.3621 0.545264 47.0101 0.517655 46.6443 0.538362C45.8813 0.571501 45.1221 0.663805 44.3734 0.814451C43.9869 0.876572 43.6003 1.00081 43.2069 1.09745C42.8273 1.23549 42.427 1.33903 42.0473 1.50468C41.2693 1.80339 40.5225 2.17792 39.8179 2.62285C39.4797 2.85753 39.1 3.07151 38.7963 3.3269L38.3132 3.70652L37.83 4.14137C36.1632 5.67779 34.92 7.61745 34.2201 9.77366C33.8893 10.7687 33.6649 11.796 33.5506 12.8383C33.5092 13.2179 33.4747 13.5285 33.4678 13.7356C33.4608 13.9427 33.447 14.0531 33.447 14.0531C33.447 14.0531 33.4263 13.9427 33.3918 13.7356C33.3711 13.639 33.3573 13.5078 33.3297 13.3629V13.3373C33.324 13.2708 33.3216 13.204 33.3228 13.1372C33.3227 10.8493 33.9202 8.60096 35.0562 6.615C36.1922 4.62903 37.8272 2.97423 39.7994 1.81449C41.7716 0.654751 44.0125 0.030296 46.3003 0.00295246C48.588 -0.0243911 50.8431 0.546323 52.8425 1.6586C52.8922 1.69104 52.9116 1.70486 52.9116 1.70486Z" fill="white"/>
</g>
</g>
<defs>
<linearGradient id="paint0_linear_24_42" x1="29.7937" y1="1.61198" x2="29.7937" y2="59.1207" gradientUnits="userSpaceOnUse">
<stop stop-color="#F55233"/>
<stop offset="0.195" stop-color="#EF5032"/>
<stop offset="0.452" stop-color="#DE4A2F"/>
<stop offset="0.743" stop-color="#C3412A"/>
<stop offset="1" stop-color="#A53826"/>
</linearGradient>
<linearGradient id="paint1_linear_24_42" x1="46.4557" y1="-0.260667" x2="46.4557" y2="25.2456" gradientUnits="userSpaceOnUse">
<stop stop-color="#F55233"/>
<stop offset="0.195" stop-color="#EF5032"/>
<stop offset="0.452" stop-color="#DE4A2F"/>
<stop offset="0.743" stop-color="#C3412A"/>
<stop offset="1" stop-color="#A53826"/>
</linearGradient>
</defs>
</svg>
